<svg width="37" height="37" viewBox="0 0 37 37" fill="none" xmlns="http://www.w3.org/2000/svg">
<g clip-path="url(#clip0_11135_2490)">
<path d="M6.01242 18.4998C6.01242 15.8636 8.15533 13.7207 10.7916 13.7207H16.9583V10.7915H10.7916C6.53659 10.7915 3.08325 14.2448 3.08325 18.4998C3.08325 22.7548 6.53659 26.2082 10.7916 26.2082H16.9583V23.279H10.7916C8.15533 23.279 6.01242 21.1361 6.01242 18.4998ZM12.3333 20.0415H24.6666V16.9582H12.3333V20.0415ZM26.2083 10.7915H20.0416V13.7207H26.2083C28.8445 13.7207 30.9874 15.8636 30.9874 18.4998C30.9874 21.1361 28.8445 23.279 26.2083 23.279H20.0416V26.2082H26.2083C30.4633 26.2082 33.9166 22.7548 33.9166 18.4998C33.9166 14.2448 30.4633 10.7915 26.2083 10.7915Z" fill="#F6C73B"/>
</g>
<defs>
<clipPath id="clip0_11135_2490">
<rect width="37" height="37" fill="white"/>
</clipPath>
</defs>
</svg>
