<svg width="14" height="11" viewBox="0 0 14 11" fill="none" xmlns="http://www.w3.org/2000/svg">
<path d="M11.8328 9.89294C12.0597 9.19674 13.1227 2.2583 13.2541 0.891105C13.2938 0.47703 13.163 0.201874 12.9066 0.079046C12.5966 -0.0700638 12.1374 0.00449204 11.6048 0.196511C10.8743 0.459867 1.53508 4.42522 0.995496 4.65479C0.483802 4.87201 0 5.10909 0 5.45236C0 5.69373 0.14321 5.82943 0.537975 5.97049C0.948832 6.11692 1.98348 6.4307 2.5944 6.59911C3.1828 6.76163 3.85272 6.62057 4.22818 6.38725C4.62616 6.13999 9.21906 3.06661 9.54893 2.79735C9.87826 2.52809 10.1411 2.87298 9.87182 3.14277C9.60257 3.41203 6.4498 6.472 6.03412 6.89573C5.5294 7.4101 5.88769 7.94325 6.22614 8.15672C6.61286 8.40023 9.39392 10.2657 9.81282 10.565C10.2317 10.8643 10.6565 11 11.0454 11C11.4343 11 11.6391 10.4878 11.8328 9.89294Z" fill="#F7CA3F"/>
</svg>
