<svg width="89" height="11" viewBox="0 0 89 11" fill="none" xmlns="http://www.w3.org/2000/svg">
<path opacity="0.7" d="M3.18687 5.76953H1.66734V5.15625H3.18687C3.48115 5.15625 3.71943 5.10938 3.90172 5.01562C4.08401 4.92188 4.21682 4.79167 4.30016 4.625C4.38609 4.45833 4.42906 4.26823 4.42906 4.05469C4.42906 3.85938 4.38609 3.67578 4.30016 3.50391C4.21682 3.33203 4.08401 3.19401 3.90172 3.08984C3.71943 2.98307 3.48115 2.92969 3.18687 2.92969H1.84312V8H1.08922V2.3125H3.18687C3.61656 2.3125 3.97984 2.38672 4.27672 2.53516C4.57359 2.68359 4.79885 2.88932 4.9525 3.15234C5.10615 3.41276 5.18297 3.71094 5.18297 4.04688C5.18297 4.41146 5.10615 4.72266 4.9525 4.98047C4.79885 5.23828 4.57359 5.4349 4.27672 5.57031C3.97984 5.70312 3.61656 5.76953 3.18687 5.76953ZM5.86062 5.93359V5.84375C5.86062 5.53906 5.9049 5.25651 5.99344 4.99609C6.08198 4.73307 6.20958 4.50521 6.37625 4.3125C6.54292 4.11719 6.74474 3.96615 6.98172 3.85938C7.2187 3.75 7.48432 3.69531 7.77859 3.69531C8.07547 3.69531 8.3424 3.75 8.57937 3.85938C8.81896 3.96615 9.02208 4.11719 9.18875 4.3125C9.35802 4.50521 9.48693 4.73307 9.57547 4.99609C9.66401 5.25651 9.70828 5.53906 9.70828 5.84375V5.93359C9.70828 6.23828 9.66401 6.52083 9.57547 6.78125C9.48693 7.04167 9.35802 7.26953 9.18875 7.46484C9.02208 7.65755 8.82026 7.80859 8.58328 7.91797C8.34891 8.02474 8.08328 8.07812 7.78641 8.07812C7.48953 8.07812 7.2226 8.02474 6.98562 7.91797C6.74865 7.80859 6.54552 7.65755 6.37625 7.46484C6.20958 7.26953 6.08198 7.04167 5.99344 6.78125C5.9049 6.52083 5.86062 6.23828 5.86062 5.93359ZM6.58328 5.84375V5.93359C6.58328 6.14453 6.60802 6.34375 6.6575 6.53125C6.70698 6.71615 6.7812 6.88021 6.88016 7.02344C6.98172 7.16667 7.10802 7.27995 7.25906 7.36328C7.4101 7.44401 7.58588 7.48438 7.78641 7.48438C7.98432 7.48438 8.1575 7.44401 8.30594 7.36328C8.45698 7.27995 8.58198 7.16667 8.68094 7.02344C8.7799 6.88021 8.85411 6.71615 8.90359 6.53125C8.95568 6.34375 8.98172 6.14453 8.98172 5.93359V5.84375C8.98172 5.63542 8.95568 5.4388 8.90359 5.25391C8.85411 5.06641 8.77859 4.90104 8.67703 4.75781C8.57807 4.61198 8.45307 4.4974 8.30203 4.41406C8.15359 4.33073 7.97911 4.28906 7.77859 4.28906C7.58068 4.28906 7.4062 4.33073 7.25516 4.41406C7.10672 4.4974 6.98172 4.61198 6.88016 4.75781C6.7812 4.90104 6.70698 5.06641 6.6575 5.25391C6.60802 5.4388 6.58328 5.63542 6.58328 5.84375ZM11.7648 7.25L12.8508 3.77344H13.3273L13.2336 4.46484L12.1281 8H11.6633L11.7648 7.25ZM11.0344 3.77344L11.9602 7.28906L12.0266 8H11.5383L10.3117 3.77344H11.0344ZM14.3664 7.26172L15.2492 3.77344H15.968L14.7414 8H14.257L14.3664 7.26172ZM13.4328 3.77344L14.4953 7.19141L14.6164 8H14.1555L13.0187 4.45703L12.925 3.77344H13.4328ZM18.5441 8.07812C18.2498 8.07812 17.9829 8.02865 17.7433 7.92969C17.5063 7.82812 17.3019 7.6862 17.13 7.50391C16.9607 7.32161 16.8305 7.10547 16.7394 6.85547C16.6482 6.60547 16.6027 6.33203 16.6027 6.03516V5.87109C16.6027 5.52734 16.6534 5.22135 16.755 4.95312C16.8566 4.68229 16.9946 4.45312 17.1691 4.26562C17.3435 4.07812 17.5415 3.9362 17.7628 3.83984C17.9842 3.74349 18.2133 3.69531 18.4503 3.69531C18.7524 3.69531 19.0128 3.7474 19.2316 3.85156C19.4529 3.95573 19.6339 4.10156 19.7745 4.28906C19.9152 4.47396 20.0193 4.69271 20.087 4.94531C20.1547 5.19531 20.1886 5.46875 20.1886 5.76562V6.08984H17.0323V5.5H19.4659V5.44531C19.4555 5.25781 19.4165 5.07552 19.3487 4.89844C19.2836 4.72135 19.1795 4.57552 19.0362 4.46094C18.893 4.34635 18.6977 4.28906 18.4503 4.28906C18.2862 4.28906 18.1352 4.32422 17.9972 4.39453C17.8592 4.46224 17.7407 4.5638 17.6417 4.69922C17.5428 4.83464 17.4659 5 17.4112 5.19531C17.3566 5.39062 17.3292 5.61589 17.3292 5.87109V6.03516C17.3292 6.23568 17.3566 6.42448 17.4112 6.60156C17.4685 6.77604 17.5506 6.92969 17.6573 7.0625C17.7667 7.19531 17.8982 7.29948 18.0519 7.375C18.2081 7.45052 18.3852 7.48828 18.5831 7.48828C18.8383 7.48828 19.0545 7.4362 19.2316 7.33203C19.4086 7.22786 19.5636 7.08854 19.6964 6.91406L20.1339 7.26172C20.0428 7.39974 19.9269 7.53125 19.7862 7.65625C19.6456 7.78125 19.4724 7.88281 19.2667 7.96094C19.0636 8.03906 18.8227 8.07812 18.5441 8.07812ZM21.835 4.4375V8H21.1123V3.77344H21.8155L21.835 4.4375ZM23.1553 3.75L23.1514 4.42188C23.0915 4.40885 23.0342 4.40104 22.9795 4.39844C22.9274 4.39323 22.8676 4.39062 22.7998 4.39062C22.6332 4.39062 22.486 4.41667 22.3584 4.46875C22.2308 4.52083 22.1228 4.59375 22.0342 4.6875C21.9457 4.78125 21.8754 4.89323 21.8233 5.02344C21.7738 5.15104 21.7412 5.29167 21.7256 5.44531L21.5225 5.5625C21.5225 5.30729 21.5472 5.06771 21.5967 4.84375C21.6488 4.61979 21.7282 4.42188 21.835 4.25C21.9418 4.07552 22.0772 3.9401 22.2412 3.84375C22.4079 3.74479 22.6058 3.69531 22.835 3.69531C22.8871 3.69531 22.947 3.70182 23.0147 3.71484C23.0824 3.72526 23.1293 3.73698 23.1553 3.75ZM25.5791 8.07812C25.2848 8.07812 25.0179 8.02865 24.7783 7.92969C24.5413 7.82812 24.3369 7.6862 24.165 7.50391C23.9957 7.32161 23.8655 7.10547 23.7744 6.85547C23.6832 6.60547 23.6377 6.33203 23.6377 6.03516V5.87109C23.6377 5.52734 23.6884 5.22135 23.79 4.95312C23.8916 4.68229 24.0296 4.45312 24.2041 4.26562C24.3785 4.07812 24.5765 3.9362 24.7978 3.83984C25.0192 3.74349 25.2483 3.69531 25.4853 3.69531C25.7874 3.69531 26.0478 3.7474 26.2666 3.85156C26.4879 3.95573 26.6689 4.10156 26.8095 4.28906C26.9502 4.47396 27.0543 4.69271 27.122 4.94531C27.1897 5.19531 27.2236 5.46875 27.2236 5.76562V6.08984H24.0673V5.5H26.5009V5.44531C26.4905 5.25781 26.4515 5.07552 26.3837 4.89844C26.3186 4.72135 26.2145 4.57552 26.0712 4.46094C25.928 4.34635 25.7327 4.28906 25.4853 4.28906C25.3212 4.28906 25.1702 4.32422 25.0322 4.39453C24.8942 4.46224 24.7757 4.5638 24.6767 4.69922C24.5778 4.83464 24.5009 5 24.4462 5.19531C24.3916 5.39062 24.3642 5.61589 24.3642 5.87109V6.03516C24.3642 6.23568 24.3916 6.42448 24.4462 6.60156C24.5035 6.77604 24.5856 6.92969 24.6923 7.0625C24.8017 7.19531 24.9332 7.29948 25.0869 7.375C25.2431 7.45052 25.4202 7.48828 25.6181 7.48828C25.8733 7.48828 26.0895 7.4362 26.2666 7.33203C26.4436 7.22786 26.5986 7.08854 26.7314 6.91406L27.1689 7.26172C27.0778 7.39974 26.9619 7.53125 26.8212 7.65625C26.6806 7.78125 26.5074 7.88281 26.3017 7.96094C26.0986 8.03906 25.8577 8.07812 25.5791 8.07812ZM30.8114 7.17969V2H31.538V8H30.8739L30.8114 7.17969ZM27.9677 5.93359V5.85156C27.9677 5.52865 28.0067 5.23568 28.0848 4.97266C28.1656 4.70703 28.2789 4.47917 28.4247 4.28906C28.5731 4.09896 28.7489 3.95312 28.952 3.85156C29.1578 3.7474 29.3869 3.69531 29.6395 3.69531C29.9052 3.69531 30.1369 3.74219 30.3348 3.83594C30.5354 3.92708 30.7046 4.0612 30.8427 4.23828C30.9833 4.41276 31.094 4.6237 31.1747 4.87109C31.2554 5.11849 31.3114 5.39844 31.3427 5.71094V6.07031C31.314 6.38021 31.258 6.65885 31.1747 6.90625C31.094 7.15365 30.9833 7.36458 30.8427 7.53906C30.7046 7.71354 30.5354 7.84766 30.3348 7.94141C30.1343 8.03255 29.8999 8.07812 29.6317 8.07812C29.3843 8.07812 29.1578 8.02474 28.952 7.91797C28.7489 7.8112 28.5731 7.66146 28.4247 7.46875C28.2789 7.27604 28.1656 7.04948 28.0848 6.78906C28.0067 6.52604 27.9677 6.24089 27.9677 5.93359ZM28.6942 5.85156V5.93359C28.6942 6.14453 28.7151 6.34245 28.7567 6.52734C28.801 6.71224 28.8687 6.875 28.9598 7.01562C29.051 7.15625 29.1669 7.26693 29.3075 7.34766C29.4481 7.42578 29.6161 7.46484 29.8114 7.46484C30.051 7.46484 30.2476 7.41406 30.4012 7.3125C30.5575 7.21094 30.6825 7.07682 30.7762 6.91016C30.87 6.74349 30.9429 6.5625 30.995 6.36719V5.42578C30.9637 5.28255 30.9182 5.14453 30.8583 5.01172C30.801 4.8763 30.7255 4.75651 30.6317 4.65234C30.5406 4.54557 30.4273 4.46094 30.2919 4.39844C30.1591 4.33594 30.0015 4.30469 29.8192 4.30469C29.6213 4.30469 29.4507 4.34635 29.3075 4.42969C29.1669 4.51042 29.051 4.6224 28.9598 4.76562C28.8687 4.90625 28.801 5.07031 28.7567 5.25781C28.7151 5.44271 28.6942 5.64062 28.6942 5.85156ZM34.8034 2H35.53V7.17969L35.4675 8H34.8034V2ZM38.3855 5.85156V5.93359C38.3855 6.24089 38.349 6.52604 38.2761 6.78906C38.2032 7.04948 38.0964 7.27604 37.9558 7.46875C37.8152 7.66146 37.6433 7.8112 37.4402 7.91797C37.237 8.02474 37.004 8.07812 36.7409 8.07812C36.4727 8.07812 36.237 8.03255 36.0339 7.94141C35.8334 7.84766 35.6641 7.71354 35.5261 7.53906C35.3881 7.36458 35.2774 7.15365 35.1941 6.90625C35.1133 6.65885 35.0573 6.38021 35.0261 6.07031V5.71094C35.0573 5.39844 35.1133 5.11849 35.1941 4.87109C35.2774 4.6237 35.3881 4.41276 35.5261 4.23828C35.6641 4.0612 35.8334 3.92708 36.0339 3.83594C36.2344 3.74219 36.4675 3.69531 36.7331 3.69531C36.9987 3.69531 37.2344 3.7474 37.4402 3.85156C37.6459 3.95312 37.8178 4.09896 37.9558 4.28906C38.0964 4.47917 38.2032 4.70703 38.2761 4.97266C38.349 5.23568 38.3855 5.52865 38.3855 5.85156ZM37.6589 5.93359V5.85156C37.6589 5.64062 37.6394 5.44271 37.6003 5.25781C37.5612 5.07031 37.4987 4.90625 37.4128 4.76562C37.3269 4.6224 37.2136 4.51042 37.073 4.42969C36.9323 4.34635 36.7592 4.30469 36.5534 4.30469C36.3711 4.30469 36.2123 4.33594 36.0769 4.39844C35.9441 4.46094 35.8308 4.54557 35.737 4.65234C35.6433 4.75651 35.5665 4.8763 35.5066 5.01172C35.4493 5.14453 35.4063 5.28255 35.3777 5.42578V6.36719C35.4193 6.54948 35.487 6.72526 35.5808 6.89453C35.6771 7.0612 35.8047 7.19792 35.9636 7.30469C36.1251 7.41146 36.3243 7.46484 36.5612 7.46484C36.7566 7.46484 36.9232 7.42578 37.0612 7.34766C37.2019 7.26693 37.3152 7.15625 37.4011 7.01562C37.4896 6.875 37.5547 6.71224 37.5964 6.52734C37.6381 6.34245 37.6589 6.14453 37.6589 5.93359ZM40.5202 7.5625L41.6959 3.77344H42.4694L40.7741 8.65234C40.735 8.75651 40.6829 8.86849 40.6178 8.98828C40.5553 9.11068 40.4746 9.22656 40.3756 9.33594C40.2767 9.44531 40.1569 9.53385 40.0163 9.60156C39.8782 9.67188 39.7129 9.70703 39.5202 9.70703C39.4629 9.70703 39.3899 9.69922 39.3014 9.68359C39.2129 9.66797 39.1504 9.65495 39.1139 9.64453L39.11 9.05859C39.1308 9.0612 39.1634 9.0638 39.2077 9.06641C39.2545 9.07161 39.2871 9.07422 39.3053 9.07422C39.4694 9.07422 39.6087 9.05208 39.7233 9.00781C39.8379 8.96615 39.9342 8.89453 40.0123 8.79297C40.0931 8.69401 40.1621 8.55729 40.2194 8.38281L40.5202 7.5625ZM39.6569 3.77344L40.7545 7.05469L40.942 7.81641L40.4225 8.08203L38.8678 3.77344H39.6569Z" fill="#989898"/>
<path fill-rule="evenodd" clip-rule="evenodd" d="M57.9266 5.02536C57.685 5.09415 57.43 5.13097 57.1664 5.13097C55.6364 5.13097 54.3961 3.89068 54.3961 2.36069C54.3961 2.08767 54.4356 1.82388 54.5092 1.57471H51.6387C51.1975 1.57471 50.8398 1.93237 50.8398 2.37358V7.8626C50.8398 8.3038 51.1975 8.66147 51.6387 8.66147H57.1277C57.5689 8.66147 57.9266 8.3038 57.9266 7.8626V5.02536Z" fill="white"/>
<path d="M59.5013 1.96855C59.5013 3.05574 58.62 3.93709 57.5328 3.93709C56.4456 3.93709 55.5642 3.05574 55.5642 1.96855C55.5642 0.881348 56.4456 0 57.5328 0C58.62 0 59.5013 0.881348 59.5013 1.96855Z" fill="url(#paint0_linear_11135_2387)"/>
<path d="M67.9031 5.61325V8.60186H69.1442V5.61325C69.1442 3.7764 68.1911 2.57501 66.6819 2.57501C65.9471 2.57501 65.2918 3.01188 65.0734 3.61754V2.64451H63.8323V8.60186H65.0734V5.62318C65.0734 4.57072 65.6592 3.81612 66.4634 3.81612C67.3372 3.81612 67.9031 4.52107 67.9031 5.61325Z" fill="white"/>
<path d="M69.9738 5.61325C69.9738 7.34088 71.2546 8.66143 72.9028 8.66143C74.551 8.66143 75.8219 7.34088 75.8219 5.61325C75.8219 3.89555 74.551 2.57501 72.9028 2.57501C71.2546 2.57501 69.9738 3.89555 69.9738 5.61325ZM72.9028 3.81612C73.856 3.81612 74.5808 4.59058 74.5808 5.61325C74.5808 6.64586 73.856 7.42032 72.9028 7.42032C71.9496 7.42032 71.2149 6.64586 71.2149 5.61325C71.2149 4.59058 71.9496 3.81612 72.9028 3.81612Z" fill="white"/>
<path d="M77.5834 1.38353L77.2855 2.64451H76.4019V3.81612H77.2855V6.5565C77.2855 8.01605 77.8813 8.60186 79.3011 8.60186H79.8174V7.37067H79.4203C78.8047 7.37067 78.5267 7.10259 78.5267 6.487V3.81612H79.8174V2.64451H78.5267V1.38353H77.5834Z" fill="white"/>
<path d="M81.9217 8.60186V2.64451H80.6806V8.60186H81.9217Z" fill="white"/>
<path d="M88.2799 8.60186V2.64451H84.8644V2.20764C84.8644 1.59204 85.1424 1.31403 85.758 1.31403H86.1551V0.0927734H85.6388C84.219 0.0927734 83.6233 0.668656 83.6233 2.13813V2.64451H82.7495V3.81612H83.6233V8.60186H84.8644V3.81612H87.0388V8.60186H88.2799Z" fill="white"/>
<path fill-rule="evenodd" clip-rule="evenodd" d="M81.1573 0C80.8066 0 80.6804 0.192486 80.6804 0.466236V1.46139H81.6535C81.9914 1.46139 82.1418 1.34309 82.1418 1.00946V0.466236C82.1418 0.15399 81.9358 0 81.6193 0H81.1573Z" fill="white"/>
<defs>
<linearGradient id="paint0_linear_11135_2387" x1="58.7216" y1="0.306786" x2="56.8297" y2="3.93709" gradientUnits="userSpaceOnUse">
<stop stop-color="#FE7970"/>
<stop offset="1" stop-color="#FEB776"/>
</linearGradient>
</defs>
</svg>
